# AST/ASF file generated using VICON BodyLanguage
# -----------------------------------------------
:version 1.10
:name VICON
:units
  mass 1.0
  length 0.45
  angle deg
:documentation
   .ast/.asf automatically generated from VICON data using
   VICON BodyBuilder and BodyLanguage model FoxedUp or BRILLIANT.MOD
:root
   order TX TY TZ RX RY RZ
   axis XYZ
   position 0 0 0  
   orientation 0 0 0 
:bonedata
  begin
     id 1 
     name lhipjoint
     direction 0.627457 -0.725269 0.283342 
     length 2.53237 
     axis 0 0 0  XYZ
  end
  begin
     id 2 
     name lfemur
     direction 0.34202 -0.939693 0  
     length 7.32496  
     axis 0 0 20  XYZ
    dof rx ry rz
    limits (-160.0 20.0)
           (-70.0 70.0)
           (-60.0 70.0)
  end
  begin
     id 3 
     name ltibia
     direction 0.34202 -0.939693 0   
     length 7.69674   
     axis 0 0 20   XYZ
    dof rx
    limits (-10.0 170.0)
  end
  begin
     id 4 
     name lfoot
     direction 0.127289 -0.349722 0.928166   
     length 1.8612   
     axis -90 7.62852e-016 20   XYZ
    dof rx rz
    limits (-45.0 90.0)
           (-70.0 20.0)
  end
  begin
     id 5 
     name ltoes
     direction 1.53561e-011 -4.21864e-011 1   
     length 0.925608   
     axis -90 7.62852e-016 20   XYZ
    dof rx
    limits (-90.0 20.0)
  end
  begin
     id 6 
     name rhipjoint
     direction -0.609094 -0.738725 0.288599   
     length 2.48624  
     axis 0 0 0  XYZ 
  end
  begin
     id 7 
     name rfemur
     direction -0.34202 -0.939693 0   
     length 7.44259   
     axis 0 0 -20   XYZ
    dof rx ry rz
    limits (-160.0 20.0)
           (-70.0 70.0)
           (-70.0 60.0)
  end
  begin
     id 8 
     name rtibia
     direction -0.34202 -0.939693 0   
     length 7.7781   
     axis 0 0 -20   XYZ
    dof rx
    limits (-10.0 170.0)
 end
 begin
     id 9 
     name rfoot
     direction -0.107015 -0.294021 0.949789   
     length 2.14741  
     axis -90 -7.62852e-016 -20   XYZ
    dof rx rz
    limits (-45.0 90.0)
           (-20.0 70.0)
  end
  begin
     id 10 
     name rtoes
     direction -1.53497e-011 -4.21924e-011 1   
     length 1.0706   
     axis -90 -7.62852e-016 -20   XYZ
    dof rx
    limits (-90.0 20.0)
  end
  begin
     id 11 
     name lowerback
     direction -0.0142066 0.998112 -0.0597545   
     length 1.86627   
     axis 0 0 0   XYZ
    dof rx ry rz
    limits (-20.0 45.0)
           (-30.0 30.0)
           (-30.0 30.0)
  end
  begin
     id 12 
     name upperback
     direction 0.00547294 0.999744 0.0219437   
     length 1.86272   
     axis 0 0 0   XYZ
    dof rx ry rz
    limits (-20.0 45.0)
           (-30.0 30.0)
           (-30.0 30.0)
  end
  begin
     id 13 
     name thorax
     direction 0.0116162 0.998704 0.0495538   
     length 1.8703   
     axis 0 0 0   XYZ
    dof rx ry rz
    limits (-20.0 45.0)
           (-30.0 30.0)
           (-30.0 30.0)
  end
  begin
     id 14 
     name lowerneck
     direction -0.0106574 0.998739 0.0490586   
     length 1.8074   
     axis 0 0 0   XYZ
    dof rx ry rz
    limits (-20.0 45.0)
           (-30.0 30.0)
           (-30.0 30.0)
  end
  begin
     id 15 
     name upperneck
     direction 0.030527 0.976587 -0.212944   
     length 1.80681   
     axis 0 0 0   XYZ
    dof rx ry rz
    limits (-20.0 45.0)
           (-30.0 30.0)
           (-30.0 30.0)
  end
  begin
     id 16
     name head
     direction 0.00869225 0.997035 -0.0764531  
     length 1.8313  
     axis 0 0 0   XYZ
    dof rx ry rz
    limits (-20.0 45.0)
           (-30.0 30.0)
           (-30.0 30.0)
  end
  begin
     id 17 
     name lclavicle
     direction 0.915958 0.399447 0.0382386  
     length 3.78965  
     axis 0 0 0   XYZ
    dof ry rz
    limits (-20.0 10.0)
           (0.0 20.0)
  end
  begin
     id 18 
     name lhumerus
     direction 1 -4.48967e-011 3.19303e-027   
     length 4.78095   
     axis -180 -30 -90   XYZ
    dof rx ry rz
    limits (-60.0 90.0)
           (-90.0 90.0)
           (-90.0 90.0)
  end
  begin
     id 19
     name lradius
     direction 1 -4.48967e-011 -3.77974e-027   
     length 3.58615   
     axis -180 -30 -90   XYZ
    dof rx
    limits (-10.0 170.0)
  end
  begin
     id 20
     name lwrist
     direction 1 -4.48927e-011 1.2807e-027   
     length 1.79307   
     axis 1.91374e-015 90 90   XYZ
    dof ry
    limits (-180.0 0.0)
 end
  begin
     id 21 
     name lhand
     direction 1 -4.49036e-011 2.5614e-027   
     length 0.659812   
     axis -1.63439e-015 90 90   XYZ
    dof rx rz
    limits (-90.0 90.0)
           (-45.0 45.0)
  end
  begin
     id 22 
     name lfingers
     direction 1 -4.49052e-011 5.1228e-027   
     length 0.531957   
     axis -3.26879e-015 90 90   XYZ
    dof rx
    limits (0.0 90.0)
  end
  begin
     id 23
     name lthumb
     direction 0.707107 -6.35012e-011 0.707107   
     length 0.763787   
     axis -90 45 2.85299e-015   XYZ
    dof rx rz
    limits (-45.0 45.0)
           (-45.0 45.0)
  end
  begin
     id 24 
     name rclavicle
     direction -0.895351 0.435135 0.0948887   
     length 3.70497  
     axis 0 0 0   XYZ 
    dof ry rz
    limits (-10.0 20.0)
           (-20.0 0.0)
  end
  begin
     id 25 
     name rhumerus
     direction -1 -4.48971e-011 2.38946e-027  
     length 4.48913   
     axis -180 30 90   XYZ
    dof rx ry rz
    limits (-90.0 60.0)
           (-90.0 90.0)
           (-90.0 90.0)
  end
  begin
     id 26 
     name rradius
     direction -1 -4.4895e-011 4.38668e-027   
     length 3.7051   
     axis -180 30 90   XYZ
    dof rx
    limits (-10.0 170.0)
  end
  begin
     id 27 
     name rwrist
     direction -1 -4.49007e-011 1.2807e-027   
     length 1.85255   
     axis 1.91374e-015 -90 -90   XYZ
    dof ry
    limits (-180.0 0.0)
  end
  begin
     id 28
     name rhand
     direction -1 -4.48851e-011 2.5614e-027   
     length 0.449136   
     axis -1.63439e-015 -90 -90   XYZ
    dof rx rz
    limits (-90.0 90.0)
           (-45.0 45.0)
  end
  begin
     id 29
     name rfingers
     direction -1 -4.49128e-011 5.1228e-027   
     length 0.362105   
     axis -3.26879e-015 -90 -90   XYZ
    dof rx
    limits (0.0 90.0)
  end
  begin
     id 30
     name rthumb
     direction -0.707107 -6.34851e-011 0.707107   
     length 0.519912   
     axis -90 -45 -2.85299e-015   XYZ
    dof rx rz
    limits (-45.0 45.0)
           (-45.0 45.0)
  end
:hierarchy
  begin
    root lhipjoint rhipjoint lowerback
    lhipjoint lfemur
    lfemur ltibia
    ltibia lfoot
    lfoot ltoes
    rhipjoint rfemur
    rfemur rtibia
    rtibia rfoot
    rfoot rtoes
    lowerback upperback
    upperback thorax
    thorax lowerneck lclavicle rclavicle
    lowerneck upperneck
    upperneck head
    lclavicle lhumerus
    lhumerus lradius
    lradius lwrist
    lwrist lhand lthumb
    lhand lfingers
    rclavicle rhumerus
    rhumerus rradius
    rradius rwrist
    rwrist rhand rthumb
    rhand rfingers
  end

#!OML:ASF I:\Actors\actors\Patient Classification 2\Patient 1\Session 1\actor1.ASF
:FULLY-SPECIFIED
:DEGREES
1
root -0.864378 18.6714 6.00794 1.6831 -2.66283 -2.67422
lowerback 0.199704 1.1953 0.950639
upperback -1.72863 1.62047 0.884861
thorax -1.88191 0.802311 0.344364
lowerneck -10.9067 -1.53545 -2.27203
upperneck 26.5915 -2.31564 2.31941
head 10.331 -1.02686 0.933649
rclavicle 7.5942e-015 -2.78299e-015
rhumerus -49.0517 -6.97223 -83.5655
rradius 41.7561
rwrist 26.2946
rhand -4.08802 -31.1759
rfingers 7.12502
rthumb 21.6694 -59.9833
lclavicle 7.5942e-015 -2.78299e-015
lhumerus -41.415 5.17524 89.3854
lradius 36.9073
lwrist -17.9047
lhand -2.1339 -26.9334
lfingers 7.12502
lthumb 23.545 1.64548
rfemur 7.45211 0.132274 16.8755
rtibia 1.59028e-015
rfoot -17.6042 -9.68092
rtoes -1.71731
lfemur -4.36447 -7.11656 -12.0687
ltibia 22.2352
lfoot -24.5535 15.1016
ltoes -54.3104
2
root -0.875208 18.6782 5.98517 1.94562 -2.20616 -2.66587
lowerback 0.308978 1.0496 0.79324
upperback -1.87571 1.42819 0.906874
thorax -2.09879 0.708288 0.454588
lowerneck -10.9441 -1.53633 -2.30641
upperneck 26.6148 -2.3244 2.37603
head 10.3482 -1.02739 0.958482
rclavicle -9.31182e-015 -9.0447e-015
rhumerus -49.0137 -6.96365 -83.5673
rradius 41.7244
rwrist 26.2905
rhand -4.06666 -31.125
rfingers 7.12502
rthumb 21.6899 -59.93
lclavicle -9.31182e-015 -9.0447e-015
lhumerus -41.4384 5.08255 89.4244
lradius 36.9652
lwrist -17.717
lhand -2.13643 -26.8681
lfingers 7.12502
lthumb 23.5425 1.71109
rfemur 7.18663 -0.339784 16.9236
rtibia 1.59028e-014
rfoot -17.6237 -9.68019
rtoes -1.52359
lfemur -4.87966 -6.57348 -11.8499
ltibia 22.2326
lfoot -23.9523 14.4034
ltoes -54.5635
3
root -0.907367 18.7005 5.91748 2.78062 -0.837008 -2.53462
lowerback 0.564331 0.598287 0.204315
upperback -2.35191 0.825896 0.970218
thorax -2.74003 0.419574 0.856837
lowerneck -10.9692 -1.53501 -2.33872
upperneck 26.6365 -2.32785 2.42221
head 10.3622 -1.02658 0.97998
rclavicle -2.73795e-015 1.13804e-014
rhumerus -48.9946 -6.94051 -83.5573
rradius 41.7088
rwrist 26.2573
rhand -4.00431 -31.019
rfingers 7.12502
rthumb 21.7498 -59.817
lclavicle -2.73795e-015 1.13804e-014
lhumerus -41.4759 4.97578 89.4627
lradius 37.0292
lwrist -17.5994
lhand -2.11311 -26.8606
lfingers 7.12502
lthumb 23.5649 1.7157
rfemur 6.33295 -1.75944 16.9696
rtibia -4.77083e-015
rfoot -17.6271 -9.64062
rtoes -0.925555
lfemur -6.47419 -5.24699 -11.4018
ltibia 22.2246
lfoot -22.2743 12.4417
ltoes -55.1029
4
root -0.907938 18.7007 5.91647 2.77583 -0.83703 -2.55127
lowerback 0.565248 0.599877 0.20454
upperback -2.33298 0.828266 0.988161
thorax -2.72135 0.420925 0.875149
lowerneck -10.961 -1.53953 -2.38291
upperneck 26.6081 -2.33051 2.44663
head 10.3512 -1.02952 0.995828
rclavicle -1.82789e-015 -5.56597e-015
rhumerus -48.9909 -6.95618 -83.5241
rradius 41.7268
rwrist 26.2494
rhand -3.94042 -30.9907
rfingers 7.12502
rthumb 21.8112 -59.7816
lclavicle -1.82789e-015 -5.56597e-015
lhumerus -41.4632 5.01297 89.4608
lradius 37.0026
lwrist -17.627
lhand -2.1052 -26.9483
lfingers 7.12502
lthumb 23.5725 1.62697
rfemur 6.33629 -1.75848 16.9908
rtibia 1.59028e-015
rfoot -17.6183 -9.65101
rtoes -1.09292
lfemur -6.47189 -5.2874 -11.381
ltibia 22.2231
lfoot -22.2728 12.4284
ltoes -55.0194
5
root -0.908472 18.7009 5.91518 2.7832 -0.83973 -2.54753
lowerback 0.571095 0.601972 0.189634
upperback -2.33104 0.830859 0.990903
thorax -2.72295 0.42258 0.886185
lowerneck -10.9338 -1.53854 -2.36205
upperneck 26.5759 -2.32591 2.4188
head 10.3332 -1.02882 0.98293
rclavicle 4.27542e-015 0
rhumerus -48.9837 -6.95054 -83.5069
rradius 41.7176
rwrist 26.228
rhand -3.85968 -30.9496
rfingers 7.12502
rthumb 21.8887 -59.7315
lclavicle 4.27542e-015 0
lhumerus -41.462 5.08479 89.4306
lradius 36.9742
lwrist -17.6949
lhand -2.05251 -26.9928
lfingers 7.12502
lthumb 23.623 1.57594
rfemur 6.32671 -1.75642 16.9896
rtibia 1.59028e-015
rfoot -17.609 -9.63253
rtoes -0.766907
lfemur -6.48222 -5.31144 -11.3817
ltibia 22.2253
lfoot -22.3002 12.4712
ltoes -54.9863
6
root -0.90859 18.7012 5.9149 2.7867 -0.8388 -2.56271
lowerback 0.582995 0.607369 0.215212
upperback -2.33874 0.838557 0.982468
thorax -2.73719 0.425778 0.862796
lowerneck -10.9089 -1.53607 -2.29713
upperneck 26.5683 -2.32356 2.36923
head 10.3241 -1.02718 0.954596
rclavicle 1.49089e-016 7.90169e-015
rhumerus -48.9722 -6.93662 -83.5083
rradius 41.6756
rwrist 26.1761
rhand -3.8527 -30.8729
rfingers 7.12502
rthumb 21.8954 -59.6539
lclavicle 1.49089e-016 7.90169e-015
lhumerus -41.4974 5.06204 89.419
lradius 37.0106
lwrist -17.693
lhand -1.98247 -26.9473
lfingers 7.12502
lthumb 23.6902 1.61278
rfemur 6.3241 -1.75684 17.0069
rtibia 1.11319e-014
rfoot -17.5895 -9.62048
rtoes -0.451696
lfemur -6.49058 -5.24372 -11.3594
ltibia 22.23
lfoot -22.2994 12.4623
ltoes -55.0728
7
root -0.908702 18.7011 5.9149 2.79222 -0.842465 -2.59062
lowerback 0.580071 0.618091 0.260747
upperback -2.3373 0.85359 0.975877
thorax -2.73349 0.432191 0.830109
lowerneck -10.888 -1.54738 -2.28096
upperneck 26.5574 -2.34199 2.36433
head 10.3162 -1.03478 0.947941
rclavicle 1.1896e-015 -4.02539e-015
rhumerus -48.9752 -6.94366 -83.5097
rradius 41.6648
rwrist 26.143
rhand -3.92165 -30.8296
rfingers 7.12502
rthumb 21.8292 -59.6184
lclavicle 1.1896e-015 -4.02539e-015
lhumerus -41.5067 5.00899 89.4198
lradius 37.0258
lwrist -17.6845
lhand -2.04061 -26.9185
lfingers 7.12502
lthumb 23.6344 1.64878
rfemur 6.31598 -1.7522 17.0388
rtibia -1.74931e-014
rfoot -17.5879 -9.62017
rtoes -0.370302
lfemur -6.49627 -5.20898 -11.3278
ltibia 22.2328
lfoot -22.3209 12.4134
ltoes -55.1156
8
root -0.908499 18.7005 5.91533 2.79698 -0.853162 -2.58923
lowerback 0.556597 0.620633 0.26492
upperback -2.32759 0.85658 0.968642
thorax -2.71011 0.433481 0.820572
lowerneck -10.8708 -1.54862 -2.27772
upperneck 26.5573 -2.34704 2.37247
head 10.313 -1.036 0.949773
rclavicle 1.31633e-014 7.95139e-016
rhumerus -48.9787 -6.93587 -83.5185
rradius 41.6612
rwrist 26.1576
rhand -3.94556 -30.8252
rfingers 7.12502
rthumb 21.8062 -59.6167
lclavicle 1.31633e-014 7.95139e-016
lhumerus -41.5017 5.03637 89.3947
lradius 36.9964
lwrist -17.7368
lhand -2.14475 -26.9597
lfingers 7.12502
lthumb 23.5346 1.62044
rfemur 6.3078 -1.74182 17.0366
rtibia 1.74931e-014
rfoot -17.6075 -9.6081
rtoes -0.240808
lfemur -6.49841 -5.2524 -11.3363
ltibia 22.2389
lfoot -22.3414 12.3992
ltoes -55.0986
9
root -0.907953 18.7003 5.91537 2.79875 -0.857775 -2.58398
lowerback 0.52898 0.617285 0.260162
upperback -2.31262 0.851605 0.968408
thorax -2.67914 0.431064 0.823531
lowerneck -10.8324 -1.54458 -2.25786
upperneck 26.5372 -2.33768 2.34205
head 10.2972 -1.03359 0.936848
rclavicle -5.19325e-015 -4.12478e-015
rhumerus -48.9538 -6.96087 -83.5148
rradius 41.6261
rwrist 26.2184
rhand -3.9323 -30.8839
rfingers 7.12502
rthumb 21.819 -59.6739
lclavicle -5.19325e-015 -4.12478e-015
lhumerus -41.4902 5.09738 89.3728
lradius 36.9751
lwrist -17.7872
lhand -2.1606 -27.0211
lfingers 7.12502
lthumb 23.5193 1.56105
rfemur 6.30429 -1.73749 17.0286
rtibia -4.77083e-015
rfoot -17.5985 -9.60208
rtoes -0.2375
lfemur -6.50172 -5.25022 -11.3441
ltibia 22.2375
lfoot -22.2983 12.4241
ltoes -55.1346
10
root -0.907925 18.7004 5.91501 2.79785 -0.868291 -2.58925
lowerback 0.519441 0.622729 0.267128
upperback -2.30095 0.858778 0.96757
thorax -2.66172 0.434461 0.818734
lowerneck -10.797 -1.54621 -2.20461
upperneck 26.5134 -2.33256 2.27119
head 10.2799 -1.03442 0.90333
rclavicle 3.74895e-015 9.93923e-017
rhumerus -48.9452 -6.95565 -83.5173
rradius 41.6276
rwrist 26.2092
rhand -3.93224 -30.9437
rfingers 7.12502
rthumb 21.819 -59.7337
lclavicle 3.74895e-015 9.93923e-017
lhumerus -41.4595 5.33935 89.2632
lradius 36.9518
lwrist -18.0191
lhand -2.05862 -27.107
lfingers 7.12502
lthumb 23.6172 1.46249
rfemur 6.30295 -1.72673 17.0347
rtibia -2.22639e-014
rfoot -17.5925 -9.60011
rtoes -0.2919
lfemur -6.5022 -5.21539 -11.3375
ltibia 22.2308
lfoot -22.2533 12.4903
ltoes -55.2099
11
root -0.908048 18.7005 5.91468 2.79107 -0.886801 -2.57328
lowerback 0.536236 0.628958 0.251853
upperback -2.29706 0.866666 0.957339
thorax -2.66733 0.438601 0.816395
lowerneck -10.8341 -1.54581 -2.14558
upperneck 26.5658 -2.32765 2.2054
head 10.3046 -1.03341 0.870436
rclavicle -3.19919e-015 -1.20265e-014
rhumerus -48.9576 -6.91424 -83.5354
rradius 41.6568
rwrist 26.1556
rhand -3.92689 -30.9398
rfingers 7.12502
rthumb 21.8242 -59.7292
lclavicle -3.19919e-015 -1.20265e-014
lhumerus -41.4405 5.73874 89.0686
lradius 36.9441
lwrist -18.4083
lhand -1.88202 -27.2239
lfingers 7.12502
lthumb 23.7865 1.32365
rfemur 6.30515 -1.70864 17.0159
rtibia -7.95139e-015
rfoot -17.6018 -9.60122
rtoes -0.290779
lfemur -6.48886 -5.23484 -11.3596
ltibia 22.2285
lfoot -22.2766 12.5378
ltoes -55.1981
